<?xml version="1.0" standalone="no"?>
<!DOCTYPE svg PUBLIC "-//W3C//DTD SVG 20010904//EN"
 "http://www.w3.org/TR/2001/REC-SVG-20010904/DTD/svg10.dtd">
<svg version="1.0" xmlns="http://www.w3.org/2000/svg"
 width="675.000000pt" height="225.000000pt" viewBox="0 0 675.000000 225.000000"
 preserveAspectRatio="xMidYMid meet">
<metadata>
Created by potrace 1.16, written by Peter Selinger 2001-2019
</metadata>
<g transform="translate(0.000000,225.000000) scale(0.100000,-0.100000)"
fill="#56042C" stroke="#56042C">
<path d="M0 1125 l0 -1125 3375 0 3375 0 0 1125 0 1125 -3375 0 -3375 0 0
-1125z m3185 738 c85 -45 126 -114 133 -225 6 -104 -10 -167 -59 -222 -77 -87
-229 -112 -342 -57 -62 30 -84 53 -114 121 -22 49 -25 65 -21 145 7 144 65
225 183 256 54 14 176 4 220 -18z m2250 13 l50 -12 -3 -54 c-2 -30 -5 -56 -7
-58 -2 -2 -27 4 -55 13 -98 33 -176 10 -228 -66 -20 -29 -23 -44 -20 -96 4
-67 21 -100 72 -137 23 -18 40 -21 109 -19 45 1 93 3 107 5 23 3 25 0 28 -48
l3 -50 -51 -12 c-113 -26 -252 -4 -326 53 -63 48 -87 99 -92 193 -5 95 11 152
61 209 70 80 213 112 352 79z m-4761 -18 c-4 -13 -12 -39 -19 -58 l-12 -35
-101 -3 -100 -3 -4 -45 c-2 -28 1 -49 9 -56 7 -5 43 -8 80 -6 77 3 77 3 43
-77 l-19 -45 -55 0 -55 0 -3 -92 -3 -93 -85 0 -85 0 -3 255 c-1 140 0 260 3
267 3 10 53 13 210 13 l206 0 -7 -22z m226 -248 l0 -270 -85 0 -85 0 0 270 0
270 85 0 85 0 0 -270z m530 263 c0 -5 -9 -30 -19 -58 l-19 -50 -101 -3 -101
-3 0 -48 0 -48 58 -7 c32 -4 66 -4 74 -1 25 10 29 -9 11 -56 -25 -65 -30 -69
-89 -69 l-53 0 -3 -92 -3 -93 -82 -3 -82 -3 -3 263 c-2 145 -2 266 0 271 2 4
95 7 208 7 112 0 204 -3 204 -7z m304 -35 c10 -24 38 -99 62 -168 25 -69 61
-166 80 -217 19 -51 34 -97 34 -103 0 -6 -32 -10 -84 -10 l-83 0 -9 33 -10 32
-95 3 -96 3 -9 -33 -10 -33 -82 -3 c-45 -2 -82 1 -82 5 0 9 139 395 173 481
l21 52 86 0 87 0 17 -42z m430 15 c3 -16 17 -97 31 -181 14 -84 29 -160 32
-170 4 -10 12 15 19 63 7 44 22 132 33 195 12 63 21 116 21 118 0 1 40 2 89 2
58 0 92 -4 97 -12 4 -6 13 -46 20 -87 25 -150 45 -256 51 -276 6 -18 15 28 63
308 l12 67 69 0 c38 0 69 -4 69 -9 0 -13 -46 -227 -83 -386 l-32 -140 -95 0
-95 0 -35 188 c-19 103 -37 187 -40 187 -3 0 -19 -75 -34 -167 -15 -93 -30
-178 -33 -190 -5 -22 -10 -23 -98 -23 -81 0 -94 2 -99 18 -5 15 -29 122 -86
382 -10 47 -21 97 -25 113 l-7 27 75 0 c74 0 76 0 81 -27z m1571 7 c48 -25 78
-77 73 -131 -5 -52 -32 -96 -65 -105 -23 -6 -33 -34 -12 -34 5 0 17 -17 26
-37 21 -52 73 -196 73 -205 0 -5 -34 -8 -75 -8 l-74 0 -22 70 c-30 100 -56
134 -102 138 l-37 3 0 -106 0 -106 -72 3 -73 3 -2 255 c-2 140 -1 261 2 268 7
20 319 13 360 -8z m305 -195 l0 -215 110 0 110 0 0 -55 0 -55 -185 0 -185 0 0
263 c0 145 3 267 7 270 3 4 37 7 75 7 l68 0 0 -215z m590 205 c139 -30 207
-125 198 -275 -6 -97 -37 -160 -100 -201 -59 -40 -136 -54 -296 -54 l-122 0 0
263 c0 145 3 267 7 270 10 11 262 8 313 -3z m1052 -186 l3 -196 28 -24 c47
-40 104 -29 132 26 12 23 15 68 15 210 l0 181 73 -3 72 -3 3 -170 c3 -209 -6
-263 -55 -310 -104 -101 -323 -82 -391 33 -27 46 -27 50 -30 250 l-3 202 75 0
75 0 3 -196z m725 168 c71 -37 104 -115 82 -195 -22 -81 -95 -127 -206 -127
l-52 0 -3 -92 -3 -93 -72 -3 -73 -3 0 271 0 272 143 -4 c124 -3 147 -6 184
-26z m-5363 -703 c65 -24 128 -80 150 -134 61 -145 -1 -299 -152 -376 l-52
-27 25 -16 c13 -9 26 -16 28 -16 14 0 197 -107 220 -128 15 -14 32 -42 37 -61
10 -38 14 -111 5 -111 -3 0 -47 22 -98 49 -50 26 -139 72 -197 101 -262 133
-361 207 -409 310 -50 105 -29 253 47 334 94 99 252 129 396 75z m1058 -76 l3
-78 92 -3 92 -3 -6 -32 c-14 -77 -20 -82 -108 -83 l-80 -2 0 -106 c0 -161 -23
-151 341 -151 l296 0 3 95 c4 140 37 206 128 256 49 27 60 29 190 32 76 2 149
1 163 -2 l24 -6 -2 -248 -3 -247 -72 -3 -72 -3 -3 108 -3 108 -27 -52 c-37
-69 -82 -120 -130 -144 -37 -19 -57 -20 -446 -17 -390 3 -409 4 -447 24 -26
13 -49 37 -65 65 -22 39 -25 58 -28 171 l-4 127 -41 -2 -42 -2 -3 45 c-3 59 8
75 52 72 35 -3 36 -1 36 31 0 37 23 63 87 103 65 40 72 35 75 -53z m2004 52
c50 -14 99 -56 124 -104 7 -13 12 -50 13 -82 1 -122 -82 -210 -268 -284 l-100
-40 195 -5 195 -5 -3 -25 c-2 -14 -8 -40 -13 -58 l-11 -32 -241 2 -242 3 -7
45 c-7 52 -21 39 151 153 138 91 180 134 188 196 13 92 -43 138 -156 128 -36
-3 -86 -13 -110 -21 -24 -9 -46 -14 -48 -12 -8 8 17 84 35 105 36 45 201 65
298 36z m681 -14 c59 -26 126 -93 150 -149 10 -23 16 -66 16 -114 0 -64 -5
-87 -30 -140 -57 -120 -191 -223 -288 -221 -100 1 -220 90 -279 206 -38 74
-38 77 -34 169 4 99 13 122 72 186 60 65 139 92 256 88 62 -2 99 -9 137 -25z
m550 14 c63 -19 120 -72 129 -121 3 -19 4 -62 2 -94 -8 -109 -87 -185 -268
-257 l-95 -38 198 -3 c108 -1 197 -6 197 -10 0 -4 -6 -29 -13 -57 l-13 -50
-245 0 -244 0 -3 51 -3 52 48 27 c154 90 253 166 279 216 8 16 14 48 14 72 0
98 -102 134 -251 87 -35 -10 -65 -17 -68 -15 -7 7 21 86 39 107 35 43 201 62
297 33z m560 0 c28 -8 63 -25 78 -37 61 -48 83 -163 46 -243 -35 -77 -102
-124 -301 -214 l-45 -20 193 0 192 -1 0 -25 c0 -14 -7 -41 -14 -60 l-15 -35
-235 0 c-227 0 -236 1 -246 20 -6 12 -10 35 -8 53 3 28 14 38 101 92 126 78
222 163 237 211 27 82 -15 145 -102 152 -47 3 -144 -13 -190 -33 -14 -5 -18
-2 -18 13 0 25 36 112 47 112 4 1 31 7 58 15 67 18 160 18 222 0z m-4129 -131
l22 -4 -2 -248 -3 -247 -72 -3 -73 -3 0 113 -1 113 -36 -67 c-43 -82 -90 -134
-139 -154 -72 -30 -135 6 -165 93 -16 48 -17 184 0 241 15 55 74 120 130 145
68 30 241 41 339 21z m1720 -9 c1 -1 6 -42 10 -91 8 -83 9 -87 20 -59 40 100
103 165 160 165 22 0 32 -34 32 -106 0 -44 0 -44 -35 -44 -48 0 -106 -54 -134
-123 -11 -28 -27 -92 -33 -142 l-13 -90 -70 0 -70 0 -5 245 c-3 135 -2 248 3
251 6 5 128 0 135 -6z"/>
<path d="M3005 1771 c-86 -36 -102 -226 -25 -303 53 -52 130 -33 168 42 39 79
25 199 -31 246 -29 25 -73 30 -112 15z"/>
<path d="M1596 1625 c-14 -52 -26 -97 -26 -100 0 -3 27 -5 60 -5 33 0 60 3 60
8 0 12 -56 182 -62 187 -3 3 -17 -37 -32 -90z"/>
<path d="M3527 1773 c-4 -3 -7 -30 -7 -60 l0 -53 53 0 c58 0 87 19 87 56 0 31
-13 42 -60 53 -54 13 -65 13 -73 4z"/>
<path d="M4460 1611 l0 -161 53 0 c61 0 112 23 141 63 16 22 21 43 21 96 0
108 -40 150 -150 159 l-65 5 0 -162z"/>
<path d="M6229 1744 c-2 -22 -3 -56 -1 -78 l3 -38 42 5 c52 7 77 35 71 79 -5
42 -20 56 -70 64 l-42 6 -3 -38z"/>
<path d="M848 1050 c-46 -14 -85 -48 -102 -90 -29 -74 -18 -140 36 -210 22
-28 137 -110 154 -110 20 0 75 71 102 128 45 98 17 217 -61 266 -29 18 -95 26
-129 16z"/>
<path d="M2916 869 c-24 -19 -26 -26 -26 -103 0 -108 13 -146 49 -146 31 0 50
17 76 69 21 41 65 169 65 188 0 9 -18 13 -69 13 -54 0 -74 -4 -95 -21z"/>
<path d="M4574 1009 c-42 -12 -91 -69 -100 -115 -18 -98 18 -232 82 -303 34
-38 47 -45 77 -45 29 0 45 8 76 38 63 61 85 123 85 237 1 86 -2 99 -24 132
-39 58 -115 80 -196 56z m111 -160 l40 -40 -43 -40 -43 -40 -34 28 c-52 43
-54 61 -11 100 19 18 39 33 44 33 4 0 26 -18 47 -41z"/>
<path d="M1465 869 c-26 -22 -27 -23 -23 -121 3 -91 5 -101 27 -119 21 -17 27
-18 45 -6 29 19 71 98 96 179 11 36 20 71 20 77 0 7 -26 11 -69 11 -55 0 -74
-4 -96 -21z"/>
</g>
</svg>
